<?xml version="1.0" encoding="utf-8"?>
<!-- Generator: Adobe Illustrator 27.4.0, SVG Export Plug-In . SVG Version: 6.00 Build 0)  -->
<svg version="1.1" id="Layer_2_00000011023784900719322760000017972176410055204999_"
	 xmlns="http://www.w3.org/2000/svg" xmlns:xlink="http://www.w3.org/1999/xlink" x="0px" y="0px" viewBox="0 0 512 512"
	 style="enable-background:new 0 0 512 512;" xml:space="preserve">
<style type="text/css">
	.st0{fill:#FA8334;}
</style>
<path class="st0" d="M371.2,156c-30.8-30.8-71.7-47.7-115.2-47.7s-84.4,16.9-115.2,47.7c-30.8,30.8-47.7,71.7-47.7,115.2
	s16.9,84.4,47.7,115.2S212.5,434,256,434s84.4-16.9,115.2-47.7s47.7-71.7,47.7-115.2S401.9,186.8,371.2,156z M344.4,262
	c-0.8-26.4-4.9-51.6-11.9-73.8c11.5-3.3,22.2-7.3,32.2-12.2c20.4,23.3,33.5,53.2,35.6,86H344.4L344.4,262z M246.8,414.4
	c-14.3-4-27.8-17.4-38.8-38.7c-1.4-2.7-2.7-5.5-4-8.3c7.9-1.5,16.1-2.7,24.7-3.5c6.1-0.6,12.1-1,18.1-1.2L246.8,414.4L246.8,414.4z
	 M265.2,362.6c14.5,0.4,28.8,2,42.8,4.7c-1.3,2.8-2.6,5.6-4,8.3c-11,21.3-24.5,34.7-38.8,38.7V362.6z M246.8,344.3
	c-6.6,0.2-13.2,0.6-19.9,1.3c-10.3,1-20.1,2.5-29.5,4.4c-6.7-20.8-10.7-44.5-11.5-69.6h60.9V344.3z M186,262
	c0.8-25,4.7-48.8,11.5-69.6c16.1,3.3,32.6,5.2,49.4,5.7V262H186z M246.8,179.8c-14.5-0.4-28.8-2-42.8-4.7c1.3-2.9,2.6-5.6,4-8.3
	c11-21.3,24.5-34.7,38.8-38.7L246.8,179.8L246.8,179.8z M265.2,128c14.3,4,27.8,17.4,38.8,38.7c1.4,2.7,2.7,5.5,4,8.3
	c-7.1,1.3-14.5,2.4-22.2,3.2c-6.9,0.7-13.7,1.2-20.5,1.4L265.2,128L265.2,128z M320.3,158.3c-4.5-8.7-9.5-16.4-14.8-22.9
	c16.8,6.1,32.1,15.3,45.3,26.8c-7.7,3.4-15.9,6.3-24.7,8.7C324.3,166.5,322.3,162.3,320.3,158.3z M191.7,158.3
	c-2.1,4-4,8.2-5.8,12.5c-8.8-2.4-17-5.3-24.7-8.6c13.2-11.5,28.5-20.7,45.3-26.8C201.2,141.9,196.2,149.6,191.7,158.3z M179.6,188.1
	c-7.1,22.3-11.2,47.5-12,73.9h-55.8c2.1-32.8,15.1-62.7,35.5-86C157.2,180.8,167.9,184.8,179.6,188.1z M167.6,280.4
	c0.8,26.4,4.9,51.6,12,73.9c-11.5,3.3-22.3,7.3-32.2,12.1c-20.4-23.3-33.5-53.2-35.6-86H167.6z M185.9,371.5
	c1.8,4.3,3.8,8.5,5.8,12.5c4.5,8.7,9.5,16.4,14.8,22.9c-16.8-6.1-32.1-15.3-45.3-26.8C168.9,376.8,177.2,373.9,185.9,371.5z
	 M326.1,371.6c8.7,2.4,16.9,5.3,24.6,8.6c-13.2,11.5-28.5,20.6-45.2,26.7c5.3-6.5,10.3-14.2,14.8-22.9
	C322.3,380.1,324.3,375.9,326.1,371.6z M314.6,349.9c-16.1-3.3-32.6-5.2-49.4-5.7v-63.9H326C325.3,305.4,321.3,329.2,314.6,349.9z
	 M265.2,262v-63.9c7.5-0.2,14.9-0.7,22.5-1.5c9.4-1,18.4-2.4,26.9-4.1c6.7,20.8,10.7,44.5,11.5,69.5H265.2z M364.6,366.4
	L364.6,366.4c-9.9-4.9-20.7-8.9-32.1-12.2c7.1-22.3,11.2-47.5,12-73.9h55.8C398.1,313.2,385,343.1,364.6,366.4z"/>
</svg>
