<?xml version="1.0" encoding="utf-8"?>
<!-- Generator: Adobe Illustrator 27.4.0, SVG Export Plug-In . SVG Version: 6.00 Build 0)  -->
<svg version="1.1"
	 id="svg2" xmlns:svg="http://www.w3.org/2000/svg" xmlns:sodipodi="http://sodipodi.sourceforge.net/DTD/sodipodi-0.dtd" xmlns:inkscape="http://www.inkscape.org/namespaces/inkscape" sodipodi:docname="logo (1).ai"
	 xmlns="http://www.w3.org/2000/svg" xmlns:xlink="http://www.w3.org/1999/xlink" x="0px" y="0px" viewBox="0 0 530 350"
	 style="enable-background:new 0 0 530 350;" xml:space="preserve">
<style type="text/css">
	.st0{fill:none;stroke:#2BEDED;stroke-width:17.1147;stroke-miterlimit:10;}
	.st1{fill:none;stroke:#2BEDED;stroke-width:8.5039;stroke-miterlimit:10;}
	.st2{fill:none;stroke:#2BEDED;stroke-width:17.0079;stroke-miterlimit:10;}
	.st3{fill:none;stroke:#FAE127;stroke-width:8.5039;stroke-miterlimit:10;}
	.st4{fill:none;stroke:#FAE127;stroke-width:17.0079;stroke-miterlimit:10;}
	.st5{fill:#FAE127;}
</style>
<g id="g10">
	<g id="g12">
		<g>
			<path class="st0" d="M64.8,26.7"/>
			<path class="st1" d="M59.9,22.8"/>
			<g>
				<line class="st1" x1="120.5" y1="198.3" x2="182.8" y2="265"/>
				<line class="st1" x1="100" y1="50.3" x2="153" y2="111.2"/>
				<g>
					<path class="st2" d="M122.7,51.5H52.3c-8.3,0-15,6.7-15,15v111.9h98.4c10.4,0,18.9-8.5,18.9-18.9V87.8L122.7,51.5z"/>
					<path class="st2" d="M144.6,199.5H38.7v111.6c0,5.5,4.5,10,10,10h121c6.5,0,11.8-5.3,11.8-11.8V239L144.6,199.5z"/>
				</g>
			</g>
			<path class="st1" d="M82.6,47.1"/>
		</g>
		<g>
			<g>
				<line class="st3" x1="191" y1="111.4" x2="258.9" y2="177.3"/>
				<g>
					<path class="st4" d="M190.4,43v89.4l41.9,41.2c0,0,63.5,0,88.1,0c0-3,0-7.7,0-7.7V43"/>
				</g>
			</g>
			<line class="st4" x1="320.4" y1="186.6" x2="320.4" y2="329"/>
		</g>
		<g>
			<line class="st3" x1="509.6" y1="256.8" x2="451.7" y2="318.6"/>
			<path class="st5" d="M361.9,275.3l11.4-11.4v43.9c0,2.5,2,4.6,4.5,4.6h88l0,0c1.2,0,2.4-0.5,3.3-1.4l30.2-31.3
				c0.8-0.8,1.3-2,1.3-3.2v-23.2h17.5v23.2c0,5.7-2.2,11.2-6.2,15.3l-30.2,31.3c-4.1,4.3-9.9,6.8-15.9,6.8l0,0h-88
				c-12.2,0-22.1-9.9-22.1-22.1v-38.7L361.9,275.3z"/>
			<path class="st5" d="M355.8,84.8l41.6-42.4h93.1c15.3,0,27.8,11.6,27.8,25.9v36.8l-7.4-7.5l-10.1,10.1V68.3
				c0-4.6-4.6-8.4-10.2-8.4h-85.7l-31.4,32v15.7H356L355.8,84.8z"/>
			<polygon class="st5" points="500.7,107.7 500.7,135.6 453.6,182.6 425.7,182.6 			"/>
			<polygon class="st5" points="373.3,236 421.6,187.8 449.5,187.8 373.3,263.9 			"/>
			<polygon class="st5" points="355.8,269.1 355.8,253.5 373.3,236 373.3,263.9 361.9,275.3 			"/>
			<polygon class="st5" points="510.8,97.6 518.2,105.2 518.2,118.1 500.7,135.6 500.7,107.7 			"/>
		</g>
	</g>
</g>
</svg>
