<?xml version="1.0" encoding="utf-8"?>
<!-- Generator: Adobe Illustrator 27.4.0, SVG Export Plug-In . SVG Version: 6.00 Build 0)  -->
<svg version="1.1"
	 id="svg2" xmlns:svg="http://www.w3.org/2000/svg" xmlns:sodipodi="http://sodipodi.sourceforge.net/DTD/sodipodi-0.dtd" xmlns:inkscape="http://www.inkscape.org/namespaces/inkscape" sodipodi:docname="logo (1).ai"
	 xmlns="http://www.w3.org/2000/svg" xmlns:xlink="http://www.w3.org/1999/xlink" x="0px" y="0px" viewBox="0 0 800 800"
	 style="enable-background:new 0 0 800 800;" xml:space="preserve">
<style type="text/css">
	.st0{fill:none;stroke:#2BEDED;stroke-width:17.1147;stroke-miterlimit:10;}
	.st1{fill:none;stroke:#2BEDED;stroke-width:8.5039;stroke-miterlimit:10;}
	.st2{fill:none;stroke:#2BEDED;stroke-width:17.0079;stroke-miterlimit:10;}
	.st3{fill:none;stroke:#FAE127;stroke-width:8.5039;stroke-miterlimit:10;}
	.st4{fill:none;stroke:#FAE127;stroke-width:17.0079;stroke-miterlimit:10;}
	.st5{fill:#FAE127;}
</style>
<g id="g10">
	<g id="g12">
		<g>
			<path class="st0" d="M191.9,244.7"/>
			<path class="st1" d="M187,240.8"/>
			<g>
				<line class="st1" x1="247.6" y1="416.3" x2="309.9" y2="483"/>
				<line class="st1" x1="227.1" y1="268.3" x2="280.1" y2="329.2"/>
				<g>
					<path class="st2" d="M249.8,269.5h-70.4c-8.3,0-15,6.7-15,15v111.9h98.4c10.4,0,18.9-8.5,18.9-18.9v-71.7L249.8,269.5z"/>
					<path class="st2" d="M271.7,417.5H165.8v111.6c0,5.5,4.5,10,10,10h121c6.5,0,11.8-5.3,11.8-11.8V457L271.7,417.5z"/>
				</g>
			</g>
			<path class="st1" d="M209.7,265.1"/>
		</g>
		<g>
			<g>
				<line class="st3" x1="318.1" y1="329.4" x2="386" y2="395.3"/>
				<g>
					<path class="st4" d="M317.5,261v89.4l41.9,41.2c0,0,63.5,0,88.1,0c0-3,0-7.7,0-7.7V261"/>
				</g>
			</g>
			<line class="st4" x1="447.5" y1="404.6" x2="447.5" y2="547"/>
		</g>
		<g>
			<line class="st3" x1="636.7" y1="474.8" x2="578.8" y2="536.6"/>
			<path class="st5" d="M489,493.3l11.4-11.4v43.9c0,2.5,2,4.6,4.5,4.6h88l0,0c1.2,0,2.4-0.5,3.3-1.4l30.2-31.3
				c0.8-0.8,1.3-2,1.3-3.2v-23.2h17.5v23.2c0,5.7-2.2,11.2-6.2,15.3l-30.2,31.3c-4.1,4.3-9.9,6.8-15.9,6.8l0,0h-88
				c-12.2,0-22.1-9.9-22.1-22.1v-38.7L489,493.3z"/>
			<path class="st5" d="M482.9,302.8l41.6-42.4h93.1c15.3,0,27.8,11.6,27.8,25.9v36.8l-7.4-7.5l-10.1,10.1v-39.4
				c0-4.6-4.6-8.4-10.2-8.4H532l-31.4,32v15.7h-17.5L482.9,302.8z"/>
			<polygon class="st5" points="627.8,325.7 627.8,353.6 580.7,400.6 552.8,400.6 			"/>
			<polygon class="st5" points="500.4,454 548.7,405.8 576.6,405.8 500.4,481.9 			"/>
			<polygon class="st5" points="482.9,487.1 482.9,471.5 500.4,454 500.4,481.9 489,493.3 			"/>
			<polygon class="st5" points="637.9,315.6 645.3,323.2 645.3,336.1 627.8,353.6 627.8,325.7 			"/>
		</g>
	</g>
</g>
</svg>
