<svg enable-background="new 0 0 630 350" viewBox="0 0 630 350" xmlns="http://www.w3.org/2000/svg"><path clip-rule="evenodd" d="m86.2 83.7.3 27.8 25.5 13.2c14 7.3 25.6 13.2 25.8 13.2.1 0 .2-12.5.2-27.7v-27.8l-25.1-13c-13.8-7.2-25.5-13.2-26-13.3-.6-.1-.8 10.7-.7 27.6" fill="#fd8a26" fill-rule="evenodd"/><path clip-rule="evenodd" d="m57 129.6c-13.5 6.9-24.8 12.9-25.2 13.2s10.8 6.7 24.9 14.1l25.6 13.4 25.2-12.9c13.9-7.1 25.3-13.4 25.4-13.9.2-1-48.2-26.6-50.2-26.5-.6 0-12.2 5.7-25.7 12.6" fill="#fd8a26" fill-rule="evenodd"/><path clip-rule="evenodd" d="m27 177 .3 27.6 24.6 12.9c13.5 7.1 25.2 13.1 25.9 13.4 1 .4 1.3-5.4 1.3-27.1v-27.8l-4.3-2.4c-5.1-2.9-47.1-24.8-47.6-24.8-.2 0-.2 12.5-.1 27.9" fill="#009fbc" fill-rule="evenodd"/><path clip-rule="evenodd" d="m112 162.4-25.5 13.4-.3 27.6c-.1 15.2 0 27.6.4 27.6s12.1-6 26-13.2l25.3-13.2v-27.8c0-15.3-.1-27.7-.2-27.7-.1-.1-11.7 6-25.7 13.3" fill="#607c84" fill-rule="evenodd"/><path clip-rule="evenodd" d="m27.2 239.7.3 27.8 25.5 13.2c14 7.3 25.6 13.3 25.7 13.3.2 0 .3-12.5.3-27.8v-27.8l-25.2-13c-13.9-7.1-25.6-13.2-26-13.3-.5-.1-.7 12.2-.6 27.6" fill="#009fbc" fill-rule="evenodd"/><g fill="#fd8a26"><path d="m162.1 143.1h36.9c18.9 0 31.9 9.2 31.9 25.3 0 16.4-12.8 26-32.9 26h-27.7v39.6h-8.1v-90.9zm8.1 44.8h28.5c16.7 0 23.6-7.8 23.6-19.2 0-12.2-9.1-19.1-23-19.1h-29.1z"/><path d="m248.1 169.1c14.9 37.2 21.4 52.5 23.9 59.5h.1c3-7.9 8.8-23 23.2-59.5h7.7l-27.7 68.7c-7.8 19.2-13.1 23.5-26.4 23.5-2.7 0-4.4-.1-6.8-.4v-6.5c2.2.3 4.3.4 6.6.4 10.6 0 14-4.5 19.5-17.9l-28.2-67.8z"/><path d="m319.5 143.1h34.2c28.3 0 47.9 17.4 47.9 44.7 0 27.2-19.2 46.3-48.1 46.3h-34.1v-91zm7.9 84.4h24.9c27.3 0 40.7-16.9 40.7-39.4 0-20-12.1-38.6-40.7-38.6h-24.9z"/><path d="m472.6 221.7c0 5.7.6 10.3 1 12.3h-7.1c-.6-1.6-1-4.4-1.3-10-2.5 4.8-9 11.6-24.2 11.6-17.1 0-24.5-9.7-24.5-19.5 0-14.3 12.5-20.8 34.7-20.8h14v-6.6c0-6.5-2.2-15.2-19-15.2-14.9 0-17.1 6.9-18.7 12.2h-7.5c.9-7.1 5.9-18.2 26.3-18.2 16.8 0 26.3 6.2 26.3 20.5zm-7.3-20.8c-2.8 0-9.6 0-14.5 0-16.4 0-26.5 3.8-26.5 14.9 0 8.2 6.6 13.8 17 13.8 21.1 0 24-12.3 24-26.4z"/><path d="m485.8 169.1h13.7v-20.3h7.4v20.3h17.6v6.1h-17.6v42.2c0 7.3 1.8 11.4 8.8 11.4 2.2 0 5.3-.1 7.7-.8v5.7c-2.5.9-6 1.2-9.1 1.2-9.4 0-14.7-4.2-14.7-14.6v-45.2h-13.7v-6z"/><path d="m590.1 221.7c0 5.7.6 10.3 1 12.3h-7.1c-.6-1.6-1-4.4-1.3-10-2.5 4.8-9 11.6-24.2 11.6-17.1 0-24.5-9.7-24.5-19.5 0-14.3 12.5-20.8 34.7-20.8h14v-6.6c0-6.5-2.2-15.2-19-15.2-14.9 0-17.1 6.9-18.7 12.2h-7.4c.9-7.1 5.9-18.2 26.3-18.2 16.8 0 26.3 6.2 26.3 20.5v33.7zm-7.2-20.8c-2.8 0-9.6 0-14.5 0-16.4 0-26.5 3.8-26.5 14.9 0 8.2 6.6 13.8 17 13.8 21.1 0 24-12.3 24-26.4z"/></g></svg>