<?xml version="1.0" encoding="UTF-8" standalone="no"?>
<!-- Created with Inkscape (http://www.inkscape.org/) -->

<svg
   version="1.1"
   id="svg2"
   width="793.70135"
   height="200"
   viewBox="0 400 793.70135 200"
   sodipodi:docname="logo (1).ai"
   xmlns:inkscape="http://www.inkscape.org/namespaces/inkscape"
   xmlns:sodipodi="http://sodipodi.sourceforge.net/DTD/sodipodi-0.dtd"
   xmlns="http://www.w3.org/2000/svg"
   xmlns:svg="http://www.w3.org/2000/svg">
  <defs
     id="defs6">
    <clipPath
       clipPathUnits="userSpaceOnUse"
       id="clipPath16">
      <path
         d="M 0,841.89 H 595.276 V 0 H 0 Z"
         id="path14" />
    </clipPath>
  </defs>
  <sodipodi:namedview
     id="namedview4"
     pagecolor="#ffffff"
     bordercolor="#000000"
     borderopacity="0.25"
     inkscape:showpageshadow="2"
     inkscape:pageopacity="0.0"
     inkscape:pagecheckerboard="0"
     inkscape:deskcolor="#d1d1d1" />
  <g
     id="g8"
     inkscape:groupmode="layer"
     inkscape:label="logo (1)"
     transform="matrix(1.3333333,0,0,-1.3333333,0,1122.52)">
    <g
       id="g10">
      <g
         id="g12"
         clip-path="url(#clipPath16)">
        <g
           id="g18"
           transform="translate(92.9455,436.0869)">
          <path
             d="M 0,0 C 0.43,0.43 0.86,0.86 1.29,1.289 -4.607,7.6 -10.504,13.91 -16.402,20.221 -16.829,19.818 -17.257,19.415 -17.684,19.011 -11.789,12.674 -5.895,6.337 0,0 m -63.365,19.786 c 0,-17.431 -0.043,-34.264 0.127,-51.094 0.009,-0.84 1.857,-2.378 2.858,-2.385 19.068,-0.145 38.137,-0.146 57.205,-0.024 1.248,0.008 3.555,1.223 3.57,1.913 0.17,8.228 0.036,16.463 -0.151,24.694 -0.015,0.665 -0.962,1.341 -1.536,1.955 -7.135,7.641 -14.23,15.32 -21.481,22.85 -1.035,1.075 -2.828,1.982 -4.283,2.002 -11.792,0.16 -23.586,0.089 -36.309,0.089 m -8.511,8.726 c 1.856,0 3.667,0 5.479,0 16.877,0 33.757,0.102 50.632,-0.126 2.19,-0.029 4.861,-1.249 6.444,-2.8 C -3.784,20.161 1.539,14.491 6.577,8.6 8.151,6.759 9.312,3.946 9.38,1.542 9.678,-9.083 9.559,-19.721 9.492,-30.354 9.439,-38.633 5.664,-42.483 -2.547,-42.509 c -19.578,-0.064 -39.157,-0.071 -58.735,0.007 -7.474,0.03 -10.919,3.219 -10.95,10.177 -0.087,19.241 -0.032,38.482 -0.015,57.723 0.001,0.825 0.191,1.649 0.371,3.114"
             style="fill:#fae127;fill-opacity:1;fill-rule:nonzero;stroke:none"
             id="path20" />
        </g>
        <g
           id="g22"
           transform="translate(65.5741,531.7349)">
          <path
             d="m 0,0 c -0.395,-0.341 -0.791,-0.683 -1.186,-1.024 4.829,-5.551 9.658,-11.102 14.487,-16.653 0.403,0.348 0.807,0.696 1.21,1.045 C 9.674,-11.088 4.837,-5.544 0,0 m -36.646,-56.34 c 15.697,0 30.827,-0.121 45.952,0.096 3.274,0.047 4.817,2.523 4.768,5.965 -0.105,7.417 0.085,14.84 -0.121,22.252 -0.047,1.666 -0.855,3.61 -1.939,4.898 -5.86,6.958 -11.811,13.849 -17.994,20.519 -1.287,1.388 -3.656,2.371 -5.578,2.462 -6.393,0.303 -12.809,0.039 -19.214,0.14 -4.16,0.066 -6.087,-1.42 -5.956,-5.952 0.271,-9.433 0.082,-18.88 0.082,-28.321 -10e-4,-7.198 0,-14.396 0,-22.059 m -9.083,-8.539 c 0,21.071 -0.141,41.619 0.083,62.164 0.07,6.399 5.075,10.965 11.529,11.058 11.962,0.171 23.93,0.166 35.89,-0.041 1.712,-0.03 3.807,-1.216 5.022,-2.52 5.049,-5.419 9.899,-11.029 14.646,-16.715 0.967,-1.158 1.641,-2.946 1.657,-4.451 0.123,-11.963 0.185,-23.931 -0.002,-35.892 -0.113,-7.306 -4.769,-13.263 -11.81,-13.441 -18.817,-0.475 -37.653,-0.162 -57.015,-0.162"
             style="fill:#fae127;fill-opacity:1;fill-rule:nonzero;stroke:none"
             id="path24" />
        </g>
        <g
           id="g26"
           transform="translate(183.387,497.7712)">
          <path
             d="m 0,0 c 0.415,0.387 0.831,0.773 1.246,1.16 -10.287,11.039 -20.573,22.078 -30.86,33.117 -0.442,-0.412 -0.885,-0.824 -1.327,-1.236 C -20.627,22.027 -10.314,11.014 0,0 M -65.338,-42.324 H 0.884 c 0,11.396 0.075,22.481 -0.103,33.561 -0.021,1.278 -1.267,2.708 -2.261,3.773 -11.262,12.085 -22.546,24.15 -33.949,36.101 -1.276,1.338 -3.286,2.679 -5.014,2.76 -6.737,0.317 -13.514,0.384 -20.236,-0.06 -1.631,-0.107 -4.445,-2.503 -4.46,-3.873 -0.275,-23.933 -0.199,-47.871 -0.199,-72.262 m 74.583,-8.508 h -83.732 v 4.816 c 0,24.808 -0.014,49.616 0.007,74.423 0.008,9.489 4.49,14.033 13.802,14.052 10.64,0.02 21.283,0.138 31.916,-0.111 2.08,-0.048 4.685,-1.042 6.097,-2.511 C -12.383,29.135 -2.311,18.231 7.722,7.294 8.752,6.172 9.648,4.416 9.659,2.947 9.782,-14.434 9.727,-31.816 9.697,-49.198 9.696,-49.664 9.447,-50.129 9.245,-50.832"
             style="fill:#fae127;fill-opacity:1;fill-rule:nonzero;stroke:none"
             id="path28" />
        </g>
        <g
           id="g30"
           transform="translate(184.5007,435.4953)">
          <path
             d="m 0,0 h -66.289 v -42.179 h -9.045 V 9.054 H 8.218 V -42.294 H 0 Z"
             style="fill:#fae127;fill-opacity:1;fill-rule:nonzero;stroke:none"
             id="path32" />
        </g>
        <g
           id="g34"
           transform="translate(226.7634,402.745)">
          <path
             d="m 0,0 c 0.387,0.332 0.774,0.665 1.16,0.997 -5.709,6.094 -11.418,12.188 -17.126,18.281 -0.438,-0.41 -0.876,-0.821 -1.314,-1.231 C -11.52,12.031 -5.76,6.016 0,0 m -25.909,29.929 h 7.695 c 2.075,-2.804 3.795,-5.57 5.944,-7.947 C -6.394,15.482 -0.433,9.049 5.724,2.818 7.076,1.45 9.367,0.323 11.251,0.281 22.041,0.043 32.84,0.256 43.633,0.11 c 3.205,-0.043 4.848,0.878 4.439,4.277 -0.04,0.332 -0.053,0.682 0.003,1.01 2.359,13.646 -2.158,24.123 -13.171,32.788 -7.767,6.109 -14.222,13.887 -21.246,20.936 -1.132,1.137 -2.177,2.362 -3.682,4.003 7.859,1.047 14.072,0.928 19.616,-5.466 7.601,-8.766 16.486,-16.407 24.55,-24.79 1.636,-1.7 2.797,-4.52 2.92,-6.889 C 57.437,18.747 57.256,11.482 57.183,4.231 57.094,-4.473 52.688,-8.88 44.131,-8.894 30.132,-8.918 16.124,-9.155 2.138,-8.715 c -3.343,0.105 -7.228,1.811 -9.791,4.023 -5.338,4.607 -10.019,9.989 -14.857,15.158 -5.199,5.556 -2.695,12.449 -3.399,19.463"
             style="fill:#fae127;fill-opacity:1;fill-rule:nonzero;stroke:none"
             id="path36" />
        </g>
        <g
           id="g38"
           transform="translate(273.9719,513.0622)">
          <path
             d="m 0,0 c -5.864,5.339 -11.729,10.678 -17.593,16.016 0.425,0.413 0.85,0.825 1.275,1.238 C -10.819,11.601 -5.32,5.949 0.18,0.297 0.12,0.198 0.06,0.099 0,0 m 4.374,10.827 c -5.003,3.923 -8.989,9.121 -13.658,13.507 -1.299,1.221 -3.419,2.187 -5.174,2.207 -14.848,0.172 -29.7,0.175 -44.549,0.067 -8.275,-0.06 -13.875,-5.779 -13.985,-14.07 -0.089,-6.748 -0.271,-13.514 0.119,-20.241 0.138,-2.384 1.291,-5.203 2.927,-6.922 8.026,-8.429 16.832,-16.154 24.447,-24.923 5.444,-6.27 11.527,-4.97 19.002,-4.523 -8.915,8.908 -16.551,17.814 -25.491,25.127 -9.807,8.023 -13.797,17.308 -12.08,29.725 0.77,5.57 1.442,7.045 7.307,7.105 9.787,0.099 19.578,0.158 29.36,-0.083 1.929,-0.047 4.24,-1.086 5.66,-2.425 5.643,-5.322 11.377,-10.629 16.349,-16.553 4.13,-4.92 8.769,-6.189 15.014,-4.736 1.2,6.635 0.585,12.164 -5.248,16.738"
             style="fill:#fae127;fill-opacity:1;fill-rule:nonzero;stroke:none"
             id="path40" />
        </g>
        <g
           id="g42"
           transform="translate(323.6407,530.1278)">
          <path
             d="M 0,0 -1.045,0.909 C -7.364,-5.343 -13.96,-11.33 -18.905,-18.888 -12.603,-12.592 -6.302,-6.296 0,0 m -19.238,-53.589 h 28.13 v -9.625 h -37.208 c 0,14.084 0.224,28.049 -0.114,41.999 -0.128,5.291 0.83,9.566 5.308,12.675 0.546,0.379 0.962,0.944 1.442,1.419 5.496,5.452 10.116,13.015 16.736,15.762 6.642,2.756 15.278,0.736 23.04,0.762 8.735,0.029 17.469,0.007 26.448,0.007 V 0.277 C 35.117,0.277 25.7,-0.107 16.334,0.412 10.091,0.758 5.58,-0.975 1.402,-5.702 c -5.575,-6.307 -11.966,-11.888 -17.881,-17.905 -1.206,-1.228 -2.587,-2.982 -2.636,-4.533 -0.261,-8.23 -0.123,-16.474 -0.123,-25.449"
             style="fill:#fae127;fill-opacity:1;fill-rule:nonzero;stroke:none"
             id="path44" />
        </g>
        <g
           id="g46"
           transform="translate(304.907,420.973)">
          <path
             d="M 0,0 C 0.208,-2.962 14.707,-17.664 19.598,-17.809 12.489,-11.349 5.924,-5.383 0,0 M 27.635,34.403 H -0.491 C -0.491,26 -0.59,17.959 -0.388,9.925 -0.357,8.669 0.846,7.257 1.838,6.24 9.254,-1.363 16.649,-8.994 24.32,-16.336 c 1.479,-1.416 4.132,-2.199 6.265,-2.242 10.76,-0.222 21.528,-0.102 32.617,-0.102 v -8.862 c -8.707,0 -17.261,-0.037 -25.814,0.011 -8.087,0.045 -17.048,-1.959 -24.012,0.884 -6.778,2.768 -11.294,10.784 -17.213,16.035 -4.365,3.871 -6.101,8.05 -5.892,13.972 0.469,13.267 0.147,26.562 0.147,40.51 h 37.217 z"
             style="fill:#fae127;fill-opacity:1;fill-rule:nonzero;stroke:none"
             id="path48" />
        </g>
        <g
           id="g50"
           transform="translate(491.1176,402.4857)">
          <path
             d="M 0,0 1.251,1.075 C -3.679,6.476 -8.61,11.878 -13.54,17.279 -13.946,16.903 -14.352,16.527 -14.758,16.151 -9.838,10.768 -4.919,5.384 0,0 m -26.617,16.043 c 12.432,15.273 24.367,30.425 37.012,44.958 1.953,2.245 7.169,1.651 10.876,2.37 0.213,-0.513 0.426,-1.027 0.639,-1.54 C 11.082,48.458 0.253,35.085 -10.995,21.196 -4.889,14.519 1.151,7.741 7.454,1.217 8.366,0.273 10.538,0.307 12.129,0.298 24.287,0.228 36.445,0.259 48.603,0.259 h 5.108 V -8.095 C 52.133,-8.18 50.546,-8.339 48.96,-8.341 32.638,-8.359 16.314,-8.485 -0.003,-8.209 c -2.443,0.041 -5.445,1.416 -7.176,3.172 -6.627,6.722 -12.841,13.851 -19.438,21.08"
             style="fill:#2beded;fill-opacity:1;fill-rule:nonzero;stroke:none"
             id="path52" />
        </g>
        <g
           id="g54"
           transform="translate(539.2997,511.4752)">
          <path
             d="M 0,0 C 0.412,0.41 0.823,0.819 1.235,1.229 -4.138,7.072 -9.511,12.916 -14.884,18.76 -15.274,18.389 -15.665,18.018 -16.055,17.647 -10.703,11.765 -5.352,5.882 0,0 m -67.029,18.658 v 8.745 c 3.134,0 6.079,0 9.024,0 14.483,0 28.968,0.114 43.446,-0.125 2.153,-0.036 4.827,-1.205 6.322,-2.755 7.153,-7.416 13.983,-15.144 21.31,-23.18 -6.791,-8.409 -13.541,-16.774 -20.3,-25.132 -3.662,-4.529 -7.785,-8.762 -10.895,-13.642 -3.757,-5.893 -8.689,-6.978 -15.799,-5.297 10.508,12.995 20.764,25.679 31.363,38.788 -6.564,7.237 -12.921,14.44 -19.566,21.367 -1.019,1.062 -3.361,1.164 -5.095,1.179 -11.321,0.099 -22.644,0.052 -33.966,0.052 -1.803,0 -3.606,0 -5.844,0"
             style="fill:#2beded;fill-opacity:1;fill-rule:nonzero;stroke:none"
             id="path56" />
        </g>
        <g
           id="g58"
           transform="translate(401.528,478.3234)">
          <path
             d="m 0,0 c -0.474,-0.395 -0.949,-0.791 -1.423,-1.186 -5.699,6.398 -12.002,12.273 -16.932,19.338 l 1.206,1.053 C -11.433,12.803 -5.716,6.402 0,0 m 53.214,-8.788 v 70.851 c -2.921,0.4 -5.638,0.772 -8.529,1.167 V -0.715 c -12.264,0 -24.388,-0.083 -36.507,0.116 -1.344,0.022 -2.911,1.418 -3.952,2.561 -6.617,7.27 -13.266,14.524 -19.551,22.077 -1.636,1.965 -2.762,4.952 -2.839,7.508 -0.314,10.46 -0.131,20.935 -0.13,31.404 -2.61,-0.239 -5.222,-0.479 -8.318,-0.762 -0.1,-1.336 -0.296,-2.753 -0.298,-4.171 -0.024,-13.503 -0.13,-27.009 0.1,-40.508 0.038,-2.215 1.106,-4.811 2.54,-6.531 5.011,-6.012 10.309,-11.795 15.69,-17.483 1.247,-1.318 3.247,-2.708 4.913,-2.724 18.353,-0.177 36.708,-0.091 55.063,-0.054 0.473,10e-4 0.945,0.249 1.818,0.494"
             style="fill:#2beded;fill-opacity:1;fill-rule:nonzero;stroke:none"
             id="path60" />
        </g>
        <path
           d="m 445.66,464.418 h 9.346 v -70.486 h -9.346 z"
           style="fill:#2beded;fill-opacity:1;fill-rule:nonzero;stroke:none"
           id="path62" />
      </g>
    </g>
  </g>
</svg>
